<mxfile host="app.diagrams.net" modified="2023-05-09T12:39:54.407Z" agent="Mozilla/5.0 (Windows NT 10.0; Win64; x64) AppleWebKit/537.36 (KHTML, like Gecko) Chrome/112.0.0.0 Safari/537.36 Edg/112.0.1722.68" etag="eYkxW8JQCGCkpIVYlw5a" version="21.2.9" type="github">
  <diagram name="第 1 页" id="O4tShYMoofDcwOmOFPTD">
    <mxGraphModel dx="936" dy="502" grid="0" gridSize="10" guides="1" tooltips="1" connect="1" arrows="1" fold="1" page="1" pageScale="1" pageWidth="2336" pageHeight="1654" math="0" shadow="0">
      <root>
        <mxCell id="0" />
        <mxCell id="1" parent="0" />
        <mxCell id="sHCcjTylrbnUzLHwBNiM-1" value="" style="shape=image;verticalLabelPosition=bottom;labelBackgroundColor=default;verticalAlign=top;aspect=fixed;imageAspect=0;image=data:image/png,iVBORw0KGgoAAAANSUhEUgAAAlEAAAGuCAMAAAHwiZMrAAAAAXNSR0IArs4c6QAAAARnQU1BAACxjwv8YQUAAABmUExURf////n5+WxsbFlZWcXFxenp6WRkZKurq9fX12BgYPHx8b+/v1xcXNvb26Ojo3l5efj4+Pz8/IuLi4qKinh4eAAAAI2NjURyxNnZ2cAAAACwUHp6esLCwvX19WhoaDg4OCAgIAAAAPoRkZMAAAAidFJOU////////////////////////////////////////////wAN0MNxAAAACXBIWXMAABcRAAAXEQHKJvM/AAAYxklEQVR4Xu3dYXPiurKFYaqgmBQU8yWZurXvl9z//yuvWn6NJWK52xrIGLKek5OZEb2N3KwQwBbsfoZD/v4nf78PbSvssn/v2tb/GP5eiW7rv4S//tBtfex2+3tt63O3O6v3pW/c1indjOu29b/mTvP60dtKvzvW/gw1tzXQtibettI92N22dUn/f45+DcVznnNbc4+/msXd85orXrMtq10qftJtVY+//nJbmbY1Wb64fvz1d9tKGyoef/3dtgYvv6375T4//pInpxvx3+jr+9zP4QrDT/xAm1q2vKnz7pTuSYOWN7WKNhU3bKr9C2wFbSp+f+VuKk6bWnsn096UPeMJ8ja1wupNDaVznnNTX7reLvU29UW7dMWmvFLv8oJX6l1e8Eq9y3e/+HNbs5p4pd7lBa/Uu7zglXqXn/gz8UqXL09P66efnOVS//KCV+pdXvBKvcsLXqlz+T6/JDxwStfMSn664U50ay8RXNKE9rt9zvz4Wta2aFZx25rV2X7zJNua1Qc/g98zq/xrIWPAcedZ5d9Qhn+DKSUMODQrw4BjO7PKR0XPu9/2x5/LXTGn//57Y2DAlBIGRjaFGboFDQMOzcow0JAeyeQ/Hzer/GA/C88qTeohj6+YU+esrjQrQ51jO7M6podW582lfXrqrFtwQJ1DszLUObY0q4vduefX1u76+OrtjTn999/lwpSStw09vmJKyQ/IFdtMGAhgTq8zq/z6lb1clGxnVsHXr9hmEr8JmNOdb0G2mWhWX2xpVqf0+OrX0f62rV6Nj7F0CxrqHJqVoc6xnVkNZ/XPvn7FNpPLG9tMFl6AKr21Hl+98d8mlI7yRL7SLWioc2hWhrpZJ3s+nx9mbbNXIiJbNb76vyF2l26vD8XPF32Y4ndKatRpG826+UW3DZpUlCYVpUlFVZOyw1w8DfynqknZhPbF2bmPxoP0hAFUk8ovC+WXq74HM0oYwLdkiqczCQNgRgkD0KQ0KQ8zShgAM0oYgCb1MpMaTwm9O2aUMABmlDCAaVJ2ZNle+cxn0PIi5J0wo6Q6ee/AjBJGBoeyU5f9OT2VecDvPmaUMABmlDAABV2T8jCjhAEwo4QBaFKalIcZJQyAGSUMoJrUtI7yvphREnuBv5pUfnr1gNenmFHSManhtI77Y0ZJx6QehRklmtQyZpRoUsuYUaJJLWNGydpJ2RlC1SnP98OMkrWTsicO7++bu/M85t8xW/s18yjMKNGkljGjRJNaxowSTWoZM0peZVL2S+YRr+0zo6RjUtNxGV4puovi3Lz65LzQ61O7z2HJ+d0xo0RBX8aMkh81KTaZMOBjRokmtYwZJZrUMmaUrJ9Ues4QuPdkkwkDPmaUrJ1UPiU28Z44sMmk2CqXNTCjZHWn9nlFt/sUi00m3zGpIDaZ/ONJsclEk1rGJhNNahmbTDSpzM6fmj1cyyaT759UPn9q+GuNTSbfP6n8Ot7crxk2mXz/pJrYZKJJLWOTiSa1jE0mmtQyNploUibddzYObbPJ5Jsnlc+fGp/Q8ErRiE0mjcWj1M1qvj7VWjxanz/1ab/4tvYLuYlNJprUMjaZaFLL2GSiSS1jk8k/mNRn/vqKTSbfP6l8xGFrd572m899KUhERER+pOPubI9f8jc9XlhwSR2yBr3v0/e9fcPHnx9sNjIfw+vW1if75/Xl69jzixe1aufVqSh1KkqdilKnotSpKHUqSp2KUqdm/Roed5YPTV+pU7z2W+Giec2dP41PaYpm3fkTmf4pmlPhonntmFzys77dqXjet+lMceCgxCWzaE6Fi+at2nl1KkqdilKnotSpKHUqSp2KUqdunfb5DI79/vM0fIM6deN0Hh6X54ec0+NOdeqLE0/5knzCfP5m1KkodSpKnYpSp6LUqSh1KkqdilKnotSpWcfd2Vb0PPtjdM4wr9g4zanYeFNz5y/jU5rydfT80XcbRXdKb2/lAquJldOcSt7OnOUjDuk5DO+t9BznT9Gdkg3TnIqN05yKjTet2nl1KkqdilKnotSpKHUqSp2KUqei1Klb4+voH+UpQYk6dWM8deoXj86nx+jpQT2P77eH7pRaz2bSbhRvbTqxJy2zDun/szHJp07ZUxnL1P56aEaZClOnotSpKHUqSp2KUqei1KkodWrecBJV+ShdnZozPlA/Ha4P0dWpWZxElR6uTwdn1KkodSpKnYpSp6L6OsX0Klx0T3SnZMNcYcXGaU7FxpvUqYKNN6lTBRtvUqcKNt6kThVsvGlu50+cOvVrdxw/VGWgTt2Y3n/KHqf/7flT86/5pwuYXmn4L/rQnZINc4UVG+caK4d8bGH2q3HE4eO6AiQ/55uOzfDnOkyvYuNMr5TrO9Gdkg1zhRUb5xorNt60aufVqajlYqZXsXGmV7Fxpley4V5cY8mGucKKjXONFRtvUqcKNt6kThVsvEmdKth4kzpVsPEmdapg403qVMHGm9o7f12MnN9UN1On5ozHZpLq/Kk2pldJw/PPJ9IFTK+Ut7OePTuZezZjF3GFldazmWFrM+zpTDsmvP/Ufj993rYyFaVORalTUepUlDoVpU5FqVNR6tQXw6lT758f9jp69P2nmF7FxplexcaZXsmGe3GNJRvmCis2zjVWbLxpbuenh+e/1hybYXoVG2d6FRtneiUb7sU1lmyYK6zYONdYsfGm2U6NT/no0nWRgzoVpU5FqVNR6lSUOhWlTkWpU1HqVJQ6Net6wkt6oA51as54EtX1kXrCJ9k1ML2KjTO9io0zvZIN9+IaSzbMFVZsnGus2HgbTfjqc3e+pG/l8z4RERERERERkcnp13Q89HKxv8ms485eZtmd7XU7NWpBSpK9ePf+vv+wk2GnVvE61s9ED0opUblRQ7DG95BPll8Rfm1z+546ZGedpx+93/bTp0aZ2X23H7fzeXfcH4bz0EdqVJAaFaRGBalRQWpUkBoVpEYFqVFBalSQGhWkRgWpUUFqVJAaFaRGBalRM8ojDCM1aoYdYTjsdofrmcHJCzWKk1wrXDSvue/lEYaRGjXDjjCchyMMqV+D5bdteSr0psJF85qNmo4wRM/Lfyr0psJF89r7bkcYDod8hGG05UZxJn6Fi+bQmwoXzVu172pUkBoVpEYFqVFBalSQGhWkRgWpUUFqVJAaFaRGBalRQWpUkBoVpEbdOO7t84gOn/v98G2kRtV+73bvJxYtVCsX1KgaL5erUaW5fbcDMPazx0G94kePD3va4jd6U3lrVjcPLrTqZw8u2CG9IUh2eCH/GA6UqNrFDhKfz6lLe2vVcyzxoDcVLppDbypcNG/VvqtRQWpUkBoVpEYFqVFBalSQGhWkRgWpUUFqVJAaFaRGBalRQWpUkBoVpEbNYInH5VlWLtCbio3z/twlG6Y3FRtvau47rwc//cEFmlOyYXpTsfGm5r5zhKF+/6gLH+66QfSmYuM0p2Q7QW8qeTtz7PDCUqI4FPPcr5nTnJIN05uKjTc1950lHokaZdr7PizxODzL+0fRm4qN05ySDdObio03rdp3NSpIjQpSo4LUqCA1KkiNClKjgtSoIDUqSI0KUqOC1KggNSpIjQpSo2rjW0ft9u86uDCa23eOK+x+7VKjdHBhMLfvHFdIbUqNqg4u8OcW0ZuKjdOckg3Tm4qNNzUSZY1Kf+RXzYvXzG2tw0bRm0oanjsK8/a2+v2jDrNHYabjCreN4s8tojcVG6c5JRumNxUbb5rd9/zhFPa2Ufaj9zmMGTUqSI0KUqOC1KggNSpIjQpSo4LUqCA1KkiNClKjgtSoIDUqSI0KUqOC1Kg5+/wmUrvdx3N8lAC9qdg4zSnZML2p2HhTc99/7Xj3mgOvdiZq1AxeOD8dx5eFEzVqxrjE41Q2ipfat4jeVGx5Bs0pWTm9qeTttCwlyg7u7ZPhvipRombwJlLpb/rRM6v2XY0KUqOC1KggNSpIjQpSo4K6GsXsKlx0T/SmYuNcY8mG6U3FxpvUqImNN6lRExtvUqMmNt6kRk1svEmNmth4kxo1sfEmNWpi401q1MTGm9SoiY03ze07Szx+2+vBf7/Eg9lVuOie6E3FxrnGkg3Tm4qNN83tO68CJ6lRf73Eg9lVuOie6E3FxrnGkg3Tm4qNN83t+7jEw96/5q/fP+rC7Cq2FWZXGf6TLvSmkq59fuXC/LXnj6FofTUSlRvFooX8LbtrophdJf8HfehNxca5xpINc4UVG2+a2/f36wEFNepqdt+HJR55dUf60WMwUaOC1KggNSpouZjZlWyY2VVsnNlVbLwT11ixca6xZMNcYcXGm9SoiY03qVETG29SoyY23qRGTWy8SY2a2HiTGjWx8SY1amLjTWrUxMab1KiJjTepURMbb1KjJjbepEZNbLypue/lEYaRGjXjWBxhGKlRM+zAwniEYaRGzUiJKo8wZH/scETL3HEQG2Z2FatndhUb78Q1VuxwC9dYsnKusJK3M2/+/aOymyMMmRI1ZzzCoB+9bHnfb6hRQWpUkBoVpEYFqVFBalSQGhWkRgWpUUFqVJAaFaRGBalRQWpUkBp1g7djsZeiDp/FC1JqVO361lG7VSsXmF3JhpldxcaZXcXGO3GNFRvnGks2zBVWbLxpbt+nl8vVqKu5fR8PwJCr4kfvsrTEg9mV0ujsEg8bZ3aV4ZX8Llxj5W3+2IaVc4WVvJ2WRqLyIb38pkjXH8NEiarlt446nA/pvsqOxOjO3Czv+w01KkiNClKjgtSoIDUqSI0KUqOC1KggNSpIjQpSo4LUqCA1KkiNClKj5hRHGEZq1IzyCMNIjZpRHmEYqVEzUnvKIwzZn0XMrmTDzK5i48yuYuOduMaKjXONJRvmCis23kYPvrgeYbAPdpa28giDiIiIiIiIiIiIiIiIiIj8GMf9fj8dUj/ZP3/t7EN1DKMiUb8/7Pt7/p7yZGHKLsUHpImEnYa7pwv3UmOydruDEiU9DkOU+CP9BrQcHcdc/R7Oha1wbpr8PCRgGb/mztwjDfdR47/K+6yr4Ibl1URv+INFKkfonO6QTvt3ht7t3ul95pG5EvVDPeyGV6J+KCVK7kuJkvtSouS+lCi5LyVK7kuJkvtSouS+lCi5LyVK7kuJkvtSouS+lCi5LyVK7kuJkvvquOFPx/1ncdKmrV34HE87nyhRP9T6G/730b6PZ21ejl/DlClRP9TqG/5ybKxhuKFEbRJvXOuivMPqG75ew5B+A1ZrGCZ/7JMKZWsIjIvyDqsT5axhuNJ91CYRGBflHdbf8MUahs9DsYbhhhK1SQTGRXmHh93wSlQn3tHfQ/VaBMZFeQclamtIjIfqtQiMi/IOStTWkBgP1WsRGBflHZSorSExHqrXIjAuyjsoUVtDYjxUr0VgXJR3UKK2hsR4qF6LwLgo76BEbQ2J8VC9FoFxUd5BidoaEuOhei0C46K8gxK1NSTGQ/VaBMZFeQclamtIjIfqtQiMi/IOStTWkBgP1WsRGBflHZSorSExHqrXIjAuyjsoUVtDYjxUr0VgXJR3UKK2hsR4qF6LwLgo76BEbQ2J8VC9FoFxUd5BidoaEuOhei0C46K8Q/SGzysUDuMSmMv+NPyl+NsNJaoTifFQvRaBcVHeIXjDn4YlL+PZv9MnLTQ/c0GJ6kRiPFSvRWBclHcI3vA3n7kwfL6QZWn62428cuFgp7Lr26pvJMZzubw1N7HwjcC42ltY/hZeuXDzuTCD4zt/Kf52pfuoTiTGQ/VaBMZFeYfoDT+sealX511zdFKi7ofEeKhei8C4KO8QvuHzrzf77WYrYPI/croO17/dUKI6kRgP1WsRGBflHR52wytRnUiMh+q1CIyL8g5K1NaQGA/VaxEYF+UdlKitITEeqtciMC7KOyhRW0NiPFSvRWBclHdQoraGxHioXovAuCjvoERtDYnxUL0WgXFR3kGJ2hoS46F6LQLjoryDErU1JMZD9VoExkV5ByVqa0iMh+q1CIyL8g5K1NaQGA/VaxEYF+UdlKitITEeqtciMC7KOyhRW0NiPFSvRWBclHdQoraGxHioXovAuCjvoERtDYnxUL0WgXFR3kGJ2hoS46F6LQLjorxDxw1/On7ur5/icdinf3wevy5fUKI6kRgP1WsRGBflHVbf8KffnM05hEgrF+6NxHio3v1vDNVbTBSf4jGtYVCi7ovEeKh+gUQRpWoNw+/io6xGthbmYAs23vKqDX1Fv0iMx0qtuSTGk2vTF4FxTfOJfqVv+RZf/1uv/hSPwcznDek+qhOJ8VD9AvdR6U6q/BSPd7t3+tAj8/shMR6qXyFRQUpUJxLjoVqJEg+J8VCtRImHxHioVqLEQ2I8VCtR4iExHqqVKPGQGA/VSpR4SIyHaiVKPCTGQ7USJR4S46FaiRIPifFQrUSJh8R4qFaixENiPFQrUeIhMR6qlSjxkBgP1UqUeEiMh+onTlS1XiE5vX/aGwRr5cK9kRgP1c+bqHq9ggXs8D4kSueZ3xeJ8VD9tIm6HPPd0/TBMMfLLidKKxfujcR4qH7aRN2sVzjs07ecqKy1cmFYuyCrkBiPlVp7SYwnbzqVExhXKl37hWCiTtV6hfy2+GZcDzP9NrzSfVQnEuOh+nkfR9XrFbJ8H5VXLrzPfCSaEtWJxHiofuLnemspUZ1IjIdqJUo8JMZDtRIlHhLjoVqJEg+J8VCtRImHxHioVqLEQ2I8VCtR4iExHqqVKPGQGA/VSpR4SIyHaiVKPCTGQ7USJR4S46FaiRIPifFQrUSJh8R4qFaixENiPFQrUeIhMR6qlSjxkBgP1a+QqIude3c94Tw57z+u5wdPlKhOJMZD9Qsk6nS8eT/z3x/FGecTJaoTifFQ/QKJYg3D+CkeOU3zifpyaru+lr/y6oIVKxfsgw7eSIxn2PbbG4Fx3Uwt+LVi5cLkVK2KGe6xdB91RyTGQ/Xz30ed+MSO6nM7lKg7IjEeql/iud7F1lXZo6h6VcwNJaoTifFQ/RKJilGiOpEYD9VKlHhIjIdqJUo8JMZDtRIlHhLjoVqJEg+J8VCtRD0CTXNRvnEkxkO1EvUINM1F+caRGA/VStQj0DQX5RtHYjxUK1GPQNNclG8cifFQrUQ9Ak1zUb5xJMZDtRL1CDTNRfnGkRgP1UrUI9A0F+UbR2I8VCtRj0DTXJRvHInxUK1EPQJNc1G+cSTGQ7US9Qg0zUX5xpEYD9VPnKjqUzxO7+kf+Q2Ct/ApHjTNRfnGkRgP1c+bqNtP8Ujy4oUtfIoHTXNRvnEkxkP10ybq9lM8krzKKn1/vkTRNA/V343EeKh+2kTdfIqHOR2nBVaNT/E4XGy5xsP/R9NcYz1N84zl3/w/EuN5o7fsm4eNhz/FY1jXslq6xYOJOlWf4oFp9cK//RQPmuaiXPdRAZR3iN7w9ad45Luqd/vXh/3t47kemdM0D9XfjcR4qH7eRK2mRHUiMR6qlahHoGkuypWoAMo7KFFNVH83EuOhWokKoWkeqpWoAKqVqEVUK1EBVCtRi6hWogKoVqIWUa1EBVCtRC2iWokKoFqJWkS1EhVAtRK1iGolKoBqJWoR1UpUANVK1CKqlagAqpWoRVQrUQFUK1GLqFaiAqhWohZRrUQFUL3NRDXWMNxQojqxcx6qXyFRrTUMN5SoTuych+oXSFRzDcMNJaoTO+eh+gUSNbOGYTetYZjYygU7uf76CQ/xrxUfZGHV0ZP38ydZ2DXQNM91Pt/zZbMz7JwnVdpShA19igdWJ+q0vIbhSvdRndg5D9UvcB/VXMNwQ4nqxM55qH6FRAUpUZ3YOQ/VSlQITfNQrUQFUK1ELaJaiQqgWolaRLUSFUC1ErWIaiUqgGolahHVSlQA1UrUIqqVqACqlahFVCtRAVQrUYuoVqICqFaiFlGtRAVQrUQtolqJCqBaiVpEtRIVQLUStYhqJSqAaiVqEdVKVADVStQiqpWoAKqVqEVUK1EBVG8oUflc8uvJ5b/fbSR9S99n1sEYJaoTO+eh+mkTdTp+PRf4bGF6yKd40DQP1UpUANXbSRTrFfgjO+UTzi97M5OqYeXCYTojfwWa5uHc/VUrF5LXWblg/xX75hm2/dCVC+nLRO+jvqyA+V3G6Gi/AGu6j+rEznmoft7fesNql+ual/Nn+UkwJyXqftg5D9VPmyj7hcdvt3O6n3rPv+vsoXke/rq2Sonqxs55qH7iRK2lRHVi5zxUK1EhNM1DtRIVQLUStYhqJSqAaiVqEdVKVADVStQiqpWoAKqVqEVUK1EBVCtRi6hWogKoVqIWUa1EBVCtRC2iWokKoFqJWkS1EhVAtRK1iGolKoBqJWoR1UpUANVK1CKqlagAqpWoRVQrUQFUK1GLqFaiAqjeZKJaaxhuKFGd2DkP1S+QqOYahhtKVCd2zkP1CyRqZg3DZQhZTYnqxM55qH6F+6jlNQxXn3/kZ/o/EhB0YvVCYw2DyHp5iV61huFz7qG5iIiIiIiIiIiIiMgr2O3+H3fBG7UG8KrWAAAAAElFTkSuQmCC;" vertex="1" parent="1">
          <mxGeometry x="79.0011684945913" y="78.2016734900841" width="300" height="217.54" as="geometry" />
        </mxCell>
        <mxCell id="sHCcjTylrbnUzLHwBNiM-2" value="ML-100k" style="text;html=1;strokeColor=none;fillColor=none;align=center;verticalAlign=middle;whiteSpace=wrap;rounded=0;" vertex="1" parent="1">
          <mxGeometry x="145" y="64" width="60" height="30" as="geometry" />
        </mxCell>
        <mxCell id="sHCcjTylrbnUzLHwBNiM-3" value="Music" style="text;html=1;strokeColor=none;fillColor=none;align=center;verticalAlign=middle;whiteSpace=wrap;rounded=0;" vertex="1" parent="1">
          <mxGeometry x="275" y="64" width="60" height="30" as="geometry" />
        </mxCell>
        <mxCell id="sHCcjTylrbnUzLHwBNiM-4" value="&lt;font style=&quot;font-size: 16px;&quot;&gt;Recall@10&lt;/font&gt;" style="text;html=1;strokeColor=none;fillColor=none;align=center;verticalAlign=middle;whiteSpace=wrap;rounded=0;" vertex="1" parent="1">
          <mxGeometry x="137" y="285" width="188" height="30" as="geometry" />
        </mxCell>
        <mxCell id="sHCcjTylrbnUzLHwBNiM-5" value="" style="shape=image;verticalLabelPosition=bottom;labelBackgroundColor=default;verticalAlign=top;aspect=fixed;imageAspect=0;image=data:image/png,iVBORw0KGgoAAAANSUhEUgAAAlAAAAGuCAMAAAEfS/gVAAAAAXNSR0IArs4c6QAAAARnQU1BAACxjwv8YQUAAABjUExURf////n5+WxsbFlZWcXFxfz8/IuLi42NjdfX12BgYPHx8enp6WRkZKurq7+/v1xcXHp6etvb26Ojo3l5efj4+MLCwvX19WhoaHh4eAAAAMAAAERyxNnZ2QCwUDg4OCAgIAAAAFWwd8AAAAAhdFJOU///////////////////////////////////////////AJ/B0CEAAAAJcEhZcwAAFxEAABcRAcom8z8AABqKSURBVHhe7d1hU+M60obhVCVFUalAVfjEvFvL/v9/+aqtO7EVpHRLAx4HnuvMzmHlB1tq+gRIYnv3a/zh34OWn/7Qu/o/w8dLf7mr/xg+3vSuTuf9Bmc10a6y+7t62e2O25tVpl1leVf/Nd+8q9N5/tjj7Gq3631kuLOr5NfsKmezZRZ58zq7St2wwVkl2lWWN6+xq/3r/PHXz+pzFq3N2tUii9bmb9hVemjf/Tk/n+3PlD1P2fOUPRemzc+fN297gUa7ylqb+fSTPTLI4zqfdic+FLr9Syx3tfwPZ4Czq/3uiY98zq7yg3uMu6s47Sru/q72b3wQcX9Xqanijwz3d9Xll+zq87fUAe6uev9zbu5qf+CDAGdXPR5+Vzma1aJ5+wq7sid3rnI0+xxdcVaFHM1q0bxduzI5mtWiefudXb3w72+YVTvqbV/wot72BS/qbV/wot72BS/qbV/wove3p0eG9G0i/z7/PEXbv9A3f6NnX0tTdAsLLHhRb/uCF/W2L3hRb/uCF/W2i1xMz+7U/tv+h/Znm1X+wXb5hNb6Gkf/BZOaHkMmDDj+6aSmB7kJA9CkhiZ1So8K++kZJ1UqYQCalCblYUYJA2BGCQPY/KSmXyD2048Jf87ng/068DV/MaOkGD4wo2Qes7/05dOkPMwo2eVfgiaa1GfMKBmYlP2UkF8/SA8JX4gZJef8LMXk/MyMEoLQl+8XTIpdJgz04XOTNSbFLhMG6vjcpHtS+9fdcb/7mH5F3syk7PEg/an94sAuEwbALhMG6vjc5Gd8+ZY0qYQgNKmhSR3tr3f7a0OTskeD6jN57DJhAOwyYaCOz02+68vHLhNNKtGkEoLY/KSe7KeE/OT+Zib1sj/YA4L3owu7TFap1IImlRCEJvVzJnXaXd7ntaVK7XeHff4xQURke07pR6m3p429V2J6OI+fHbCS9HC+ezp/8P9EtoyfWxIGtoAZJQxsATNKGMj4AS9hYFXMKGEgY0YJA6tiRgkDGTNKGFgVM0oYyJhRwsCqmFHCQMaMEgaq7OzU7/jux4wSBjJmlDBQ900/IzCjhIGMGSUM1L3u9h/2vsovxowSBjJmlDCwKmaUMJAxo4SBVTGjhIGMGSUMrIoZJQxkzChhYFXMKGEgY0YJA6tiRgkDGTNKGFgVM0oYyJhRwsCqmFHCQMaMEgZWxYwSBjJmlDCwKmaUMJAxo4SBVTGjhIGMGSUMrIoZJQxkzChh4LPpZdH83sWvxowSBjJmlDDw2d6+He/s6nrJ9DamxZsf/+qvfH7XpNjGjJIyvyjM9IPU91wrghklDGTMKGFgVcwoYSBjRgkDq2JGCQMZM0oYWBUzShjImFHCwKqYUcJAxowSBlbFjBIGMmaUMLAqZpQwkDGjhIFVMaOkeMGIGSXkVsWMEk3qPmaU/JhJfcNvx4YZJSOTun5/tm/XX4cZJcW7rJlRQu6CSWT79HPDd7xay4wSNfp9zCjRpO5jRokmdR8zSr5yUuwyYaAPn5usMCl2mTDQwOcmmhQDDXxu0j2p6U2Ch+q3GXaZMJCxy4SBBj436Z3UdM5T47kEdpkwkLHLhIEGPjfpn9R5+tFleqLjBrtMGMjYZcJAA5+bqNEZaOBzE02KgQY+N9GkGGjgcxNNioEGPjfRpBho4HOTnzKpl/3urfodmV0mDGTsMmGggc9NRiqVZlT7fvxvJ9V6pwS7TBjI2GXCQAOfm3xTT7HHRJOqYJeJJnUfu0w0qfvYZaJJ3ccuE03qPnaZrDypl/S9+KXxrjx2maw8KXsLwNUzd1tZXqN1snxyvv3s/A0+N3nOF3KdRJ7cTx+mWdV/TmCXycqVuoddJprUfewy0aTuY5eJJnUfu0w0qfvYZaJJ3ccuk38wKXt6nw8L7DL5B5NK35S/49X2v7I/H4776jMcIiIiso7jCz8h7J921Tu1SJaqdLbr3zylf877xTs5/vxm1GDp6fos0M1ZIbXwb9G1dhUqSIUKUqGCVKigLReKJ0wKbPoSv7VQPONUYFOdCjVjU50KNWNTnQo1Y1OdCjVjU50KNWNTXXPtL+k3ven5/Nf51X8VqsKeQnhN/ztefkFOvvYOOF+L2hTYVENtCmyqaxbqbE9KvdqbXNRRpmvtKlSQChWkQgWpUEEqVJAKFaRCBalQQSpUkAoVpEKVTrvda34dfV++90CFKqVC2RMH+aNHeUmd2hTYVENtCmyqq67d3phxOJztjkDTXxcqVJAKFaRCBalQQSpUkAoV9IiF4gyXQhqmNgWLN6lQM4s3qVAzizepUDOLN6lQM4s3NdfOu/LfpteMoUJV8JL6br+4Y6AKVfF0fS39sZ89oDaFNExtChZv6lq7ChWkQgWpUEEqVJAKFaRCBalQQffDzK7AphpmV2DTCA5YsHFqU0jDHLBg8SYVambxJhVqZvEmFWpm8aba2q/vxe97SZ3ZFdhUw+wKbBrBAQs2Tm0KaZgDFizeVFv75YkDyrV4muV8fm5jdgU21TC7AptGcMDC8/N5caXGWRrngIXpxo2tP7VCTe/FP7weUmfZMwjR56OYXYFNNcyuwKYRHLBg49SmkIY5YMHiTffXfkOFClKhglSoIBUqSIUKUqGCVKggFSpIhQpSoYJUqAp7V75d6E6/62X3CjVdEXBRp92f9Gt3eUOG5R9mV+Bc+BpmV2DTCA5YSMPVZw/SOAcsTPtpaTdJflf+037xjnx1VNBQoZhcweLMrmDjgzhgwcY5YiENc8CCxZtUqJnFm1SomcWbVKiZxZtUqJnFm1SomcWbVKiZxZtUqJnFm1SomcWbVKiZxZuqa9/v87nXH7vd4eNvf4VhcgWLM7uCjQ/igAUb54iFNMwBCxZvqq3dfh+eKpVK9PfvPWByBYszu4KND+KABRvniIU0zAELFm9qFCpf9yD3Em/YSFSoIBUqSIUKUqGCVKggFSpIhQpSoYJUqCAVKkiFClKhKi432YtfkYzZFdIwkytYnNkVbHwQByzYOEcspGEOWLB4U3Pt9szB5SmEC+4018DsCmmYyRUszuwKNj6IAxZsnCMW0jAHLFi8jRp8cj2df1EoEREREREREZHJiZM7Xt/13MFdL9TnvbjogdyyU2CsPk/T1SEWz3C+8xTWr1TpmCOFeuGZu/x3cv+Z4B+utvj00JT+JCrUrLb46RYn+T++9J9erplRoYJUqCAVKkiFClKhglSoIBUqSIUK2nSheLvBElu+hgoVpEIF/dZC8U6fApvqVKgZm+pUqBmb6lSoGZvqVKgZm+pUqBmb6lSoGZvqVKgZm+pUqBmb6lSoGZvqVKgZm+rai7+88jm/8qdC1Vxe3DtdX9ZToWqOr7mXjmcVatJavJ0wZIXazy8U2008toviLLGlitoU2FTX7Kj8lpbzfvEuDXVUzd6uz2I10n96k57Fq1BBKlSQChWkQgWpUEEqVJAKFaRCBalQQSpUkAoVpEIFqVBBKlSQChWkQgWpUEEqVJAKFaRCBalQQSrUjdPu1a6X+LI7HacXrC5UqBuX0/kvr+xdqFCl6+n8e6vY4nR+e0n9YC8vb/EvirO03Hz7F7UpNMP2V6VQl9P5k+lV4utLxeqoG+/THU+MCnVVWzyn8+/3qVwPczo/xVliSxW1KbCprmfxKlSQChWkQgWpUEEqVJAKFaRCBalQQSpUkAoVpEIFPWKhuMFJwcapTcHGm1SomY03qVAzG29SoWY23qRCzWy8SYWa2XiTCjWz8SYVambjTSrUzMabVKiZjTc1F798XR0qVM3ydXWoUBWXs9Sn19WhQlXcvq5u/thr8M8bRXGWbJjaFJ7TKqhNYdpPjb39oNklN6+rG3VUzfJ1dahQQSpUkAoVpEIFqVBBKlSQChWkQgWpUEEqVJAKFaRCBalQQSpU0P0ssyuwaQ0cccmGqU3BxqlNwcab/l2hmN0SW4ZwxCUbpjYFG+eIBRtvUqFmNt6kQs1svEmFmtl4kwo1s/EmFWpm400q1MzGm6qL33/Y308f7+nD/UfwJXVmV2BTFbNbYssQjrhkw9SmYOMcsWDjTbXFp/rk0z5fek7nZ3YFNlUxuyW2DOGISzZMbQo2zhELNt5UWfz8IrEKNass/nI6P3+/2ZtaJtMV8nmV+TNmV2BTVZ5cgS1DOOKSDVObwvPz+cARC4fpvP3Gn1pHXd7IQjddz75WR92YLo7/kev0unvSg7m5v/iSChWkQgWpUEEqVJAKFaRCBalQQSpUkAoVpEIFqVBBKlSQChWkQgWpUEEqVJAKFaRCBalQQSpUkAoVpEJVHDmd/+ny6l6iQtW8XM4pftXreqa1+JvX1ScqVMX1nRpv1+tDTO89sFPh63+YXWF6V0ADs1tiyxCOuGTn4VObgsU5YsHeWtFQfe9Bxnt/pgcqqKNqrqfz74PXPWB2BTZVMbsltgzhiEs2TG0KNs4RCzbedH/xpbFCMbuCjTO7JRsexRGXbJgDFmycIxZsvEmFmtl4kwo1s/EmFWpm400q1MzGm1SomY03qVAzG29SoWY23qRCzWy8SYWa2XiTCjWz8SYVambjTSrUzMabVKiZjTepUDMbb1KhZjbepELNbLxJhZrZeJMKNbPxJhVqZuNNKtTMxpuqi8+n8++e7Jrmf306P7Mr2DizW7LhURxxyYY5YMHGOWLBxptqi+clvdP8anGmQpWuLxIfVKhZZfHXRrLbCdyezl++jL78w+wK9uI1sysc6i9qW3wUR1yy18I5YMHiHLFg+Yb7p/NbxZK/PJ2f2RVsnNkt2fAojrhkwxywYOMcsWDjTbXFczr/1FF/fzo/syvYOLNbsuFRHHHJhjlgwcY5YsHGm+4vvqRCBalQQSpUkAoVpEIFqVBBKlSQChWkQgWpUEEqVJAKFaRCBalQQSpUkAoVpEIFqVBBKlSQChWkQgWpUBWX0/kP++vrnypU1eV0/vxy8USFqrh5XX3y5y5mV7BxZlewcWa3ZMOjOOKSDXPAgo1zxIKNt1GEW9d3aiwKJTW890eF8syn88+35xcREREREREREREREREReTin/X6fz1DPnqZrmp/TaJKHRKLeprccPF2vdrA7HZ5yQ813XxCJOuYHp/PljXbH03mnhpJhh9xQ/Gt3OB3Tw9X1Nh5vizd0XvB+NPl96IC7jvsX+9drfjyafnD6SP+79NHiW+FFbL/y4wS/8AfrqKmfXi9tND1C2dXu0s/n1wskXamhfqnv+sKroX4pNZR8KTWUfCk1lHwpNZR8KTWUfCk1lHwpNZR8KTXUxnBFBg/p7VFDbQwN4yG9PWqojaFhPKR7cYUZF/EBaqiNoWE8pHvRLy7iA9RQG0PDeEj3ol9cxAeooTaGhvGQ7kW/uIgPUENtDA3jId2LfnERH6CG2hgaxkO6F/3iIj5ADbUxNIyHdC/6xUV8gBpqY2gYD+le9IuL+AA11MbQMB7SvegXF/EBaqiNoWE8pHvRLy7iA9RQG0PDeEj3ol9cxAeooTaGhvGQ7kW/uIgP6P7Cn/MJVfOpna/79+spnzM11CAaxkO6F/3iIj6g+wt/Wp7ymby9H+dziGdqqEE0jId0L/rFRXxA7xf+5qT0qZnqDXWWETSMh3Qv+sVFfEBvQ10vmzH96zg9XukR6gvRMB7SvegXF/EB3Q2Vr2NQXM1ADfWFaBgP6V70i4v4gP4v/GG//zjZT1DlVQ5uqKEG0TAe0r3oFxfxAd/1hVdDDaJhPKR70S8u4gPUUBtDw3hI96JfXMQHqKE2hobxkO5Fv7iID1BDbQwN4yHdi35xER+ghtoYGsZDuhf94iI+QA21MTSMh3Qv+sVFfIAaamNoGA/pXvSLi/gANdTG0DAe0r3oFxfxAWqojaFhPKR70S8u4gPUUBtDw3hI96JfXMQHqKE2hobxkO5Fv7iID1BDbQwN4yHdi35xER+ghtoYGsZDuhf94iI+QA21MTSMh3Qv+sVFfIAaamNoGA/pXvSLi/gANdTG0DAe0r3oFxfxAWqojaFhPKR70S8u4gPUUBtDw3hI96JfXMQHqKE2hobxkO5Fv7iID1BDbQwN4yHdi35xER+ghtoYGsZDuhf94iI+IPqFP54+5lvCHp/sBrF2G8+D3Sr2w25BfEMNNYiG8ZDuRb+4iA8IfuHfTvb30/uic6az0Q+tu6KroQbRMB7SvegXF/EBsS/8+VScgG6mi2a0b7OvhhpEw3hI96JfXMQHxL7wdBInoE+Op/l6GYtrsVzYtQ0O+Wx3/pXoI++j5+i1DZ6nePcB6BdX/oTgTouPYg1V3mYf8+noxbfCTI9Qg2gYD+le9IuL+IDgF35xm/2Pw256oHqy//duH73rh/KvQ8N4SPeiX1zEB3zXF14NNYiG8ZDuRb+4iA9QQ20MDeMh3Yt+cREfoIbaGBrGQ7oX/eIiPkANtTE0jId0L/rFRXyAGmpjaBgP6V70i4v4ADXUxtAwHtK96BcX8QFqqI2hYTyke9EvLuID1FAbQ8N4SPeiX1zEB6ihNoaG8ZDuRb+4iA9QQ20MDeMh3Yt+cREfoIbaGBrGQ7oX/eIiPkANtTE0jId0L/rFRXyAGmpjaBgP6d1/g4jTLy7iA9RQG0PDeEirocRBw3hIq6HEQcN4SKuhxEHDeEirocRBw3hIq6HEQcN4SKuhxEHDeEirocRBw3hI/4SGapyUfkMNNYiG8ZB+/IY6vnGL2NuT0m+ooQbRMB7Sj99QzZPSb6ihBtEwHtKP31CVk9J380npM26zfzifn6UHDePJ4fMz/eI6P09fC/rFlXffhRPSu7/l3T8p/UqPUINoGA/pH/BDeXlS+sl+Op9OSr+hhhpEw3hI/4Tf8mLUUINoGA9pNZQ4aBgPaTWUOGgYD2k1lDhoGA9pNZQ4aBgPaTWUOGgYD2k1lDhoGA9pNZQ4aBgPaTWUOGgYD2k1lDhoGA9pNZQ4aBgPaTWUOGgYD2k1lDhoGA9pNVQENXMR/1lYm4e0GiqCmrmI/yyszUNaDRVBzVzEe1EzD+m1sTYPaTVUBDVzEe9FzTyk18baPKTVUBHUzEW8FzXzkF4ba/OQVkNFUDMX8V7UzEN6bazNQ1oNFUHNXMR7UTMP6bWxNg9pNVQENXMR70XNPKTXxto8pNVQEdTMRbwXNfOQXhtr85B+2Iaazg4+XC5p8PZkI+mv9HflugZGDTWItXlIP2pDHU+fT+98tV76ltvsUzMX8V7UzEN6bazNQ/pRG4oT0JdXNMinEJ/3ptJUaqhBrM1D+mEfoT5d0eBt2UUn++5Xsmsb2Ln3I/9QM9fiU3r+oWaexWes+Q9r81zy9Isrp8O32Z8uUzAk2FD56gXXaxi8flwuEGWO1YbigwHUzEW8FzXzkF4ba/OQftzf8g6Xb22v6VHqafpGZz+VT8OfL5WhhhrG2jykH7eheqmhBrE2D2k1VAQ1cxHvRc08pNfG2jyk1VAR1MxFvBc185BeG2vzkFZDRVAzF/Fe1MxDem2szUNaDRVBzVzEe1EzD+m1sTYPaTVUBDVzEe9FzTyk18baPKTVUBHUzEW8FzXzkF4ba/OQVkNFUDMX8V7UzEN6bazNQ1oNFUHNXMR7UTMP6bWxNg9pNVQENXMR70XNPKTXxto8pNVQEdTMRbwXNfOQXhtr85BWQ0VQMxfxXtTMQ3ptrM1DWg0VQc1cxHtRMw/ptbE2D2k1VAQ1cxHvRc08pNfG2jyk1VAR1MxFvBc185BeG2vzkFZDRVAzF/Fe1MxDem2szUNaDRVBzVzEe1EzD+m1sTYPaTVUBDVzEe9FzTyk18baPKTVUBHUzEW8FzXzkF4ba/OQVkNFUDMX8V7UzEN6bazNQ1oNFUHNXMR7UTMP6bWxNg/pn9BQn2+z//kkKjXUMNbmIf0DGorb7J+m/5O9VS5woIYaxNo8pB+/oc7TXYaX5xBbQ/HBghpqEGvzkH78hqpc5eCpdgWWfCr6GGrmIt6LmnlIr421eSxqN7anX1zTvsNr/0/a88Cf+Knos/PtdVjs3ugVeoQaxNo8pH/Az1Dnj+Vt9qeb7teooQaxNg/pn/BbXsyKDUXJXMTVUAHEB6ihWkivjbV5SKuhIqiZizglcxFXQwUQH6CGaiG9NtbmIa2GiqBmLuKUzEVcDRVAfIAaqoX02libh7QaKoKauYhTMhdxNVQA8QFqqBbSa2NtHtJqqAhq5iJOyVzE1VABxAeooVpIr421eUiroSKomYs4JXMRV0MFEB+ghmohvTbW5iGthoqgZi7ilMxFXA0VQHyAGqqF9NpYm4e0GiqCmrmIUzIXcTVUAPEBaqgW0mtjbR7SaqgIauYiTslcxNVQAcQHqKFaSK+NtXlIq6EiqJmLOCVzEVdDBRAfoIZqIb021uYhrYaKoGYu4pTMRVwNFUB8gBqqhfTaWJuH9MM2VHmb/elGntPpeFu4zT4lcxFXQwUQHxD7wn++zf45N9cWbrNPyVzE1VABxAfEvvCfT0Dn4gZ3brO/0qno8bOx7b7ghpp5puz6WJsnJaf1sDZX3vlmTkX/fJv95cUN6rfZ54MB1MxFnJK5iOsRKoD4gGBD3dxmv+itf32bfUrmIq6GCiA+IPqFL26zn7/R7d+Pefgf32afkrmIq6ECiA/4my/8PWqoQazNQ1oNFUHNXMQpmYu4GiqA+AA1VAvptbE2D2k1VAQ1cxGnZC7iaqgA4gPUUC2k18baPKTVUBHUzEWckrmIq6ECiA9QQ7WQXhtr85BWQ0VQMxdxSuYiroYKID5ADdVCem2szUNaDRVBzVzEKZmLuBoqgPgANVQL6bWxNg9pNVQENXMRp2Qu4mqoAOID1FAtpNfG2jyk1VAR1MxFnJK5iKuhAogPUEO1kF4ba/OQVkNFUDMXcUrmIq6GCiA+QA3VQnptrM1DWg0VQc1cxCmZi7gaKoD4ADVUC+m1sTYPaTVUBDVzEadkLuJqqADiA9RQLaTXxto8pH9CQxW32bczrKr3iFVDDWJtHtI/oKHK2+wf9y/FDdKv1FCDWJuH9OM31Ofb7KuhvhRr85B+/Ib6fJWD4qT0q48/8jv9jw4I+nSb/cYjlEhMeZv9pP4IJSIiIiIiIiIiIiLyyHa7/wfPVO8HhNWKHgAAAABJRU5ErkJggg==;" vertex="1" parent="1">
          <mxGeometry x="369.00193772536056" y="78.19936579777635" width="300" height="217.91" as="geometry" />
        </mxCell>
        <mxCell id="sHCcjTylrbnUzLHwBNiM-6" value="ML-100k" style="text;html=1;strokeColor=none;fillColor=none;align=center;verticalAlign=middle;whiteSpace=wrap;rounded=0;" vertex="1" parent="1">
          <mxGeometry x="436" y="64" width="60" height="30" as="geometry" />
        </mxCell>
        <mxCell id="sHCcjTylrbnUzLHwBNiM-7" value="Music" style="text;html=1;strokeColor=none;fillColor=none;align=center;verticalAlign=middle;whiteSpace=wrap;rounded=0;" vertex="1" parent="1">
          <mxGeometry x="566" y="64" width="60" height="30" as="geometry" />
        </mxCell>
        <mxCell id="sHCcjTylrbnUzLHwBNiM-8" value="&lt;font style=&quot;font-size: 16px;&quot;&gt;NDCG@10&lt;/font&gt;" style="text;html=1;strokeColor=none;fillColor=none;align=center;verticalAlign=middle;whiteSpace=wrap;rounded=0;" vertex="1" parent="1">
          <mxGeometry x="433" y="285" width="188" height="30" as="geometry" />
        </mxCell>
      </root>
    </mxGraphModel>
  </diagram>
</mxfile>
